<?xml version="1.0" encoding="utf-8"?>
<!-- Generator: Adobe Illustrator 17.0.0, SVG Export Plug-In . SVG Version: 6.00 Build 0)  -->
<!DOCTYPE svg PUBLIC "-//W3C//DTD SVG 1.1//EN" "http://www.w3.org/Graphics/SVG/1.1/DTD/svg11.dtd">
<svg version="1.1" id="Layer_2" xmlns="http://www.w3.org/2000/svg" xmlns:xlink="http://www.w3.org/1999/xlink" x="0px" y="0px"
	 width="597.2px" height="192.8px" viewBox="0 0 597.2 192.8" enable-background="new 0 0 597.2 192.8" xml:space="preserve">
<g>
	<path fill="#D0D0D0" d="M338.9,192.8c-6.7,0-10.5-4.7-10.5-11.3c0-6.5,3.9-11.3,10.5-11.3c6.6,0,10.5,4.8,10.5,11.3
		C349.4,188.1,345.6,192.8,338.9,192.8 M338.9,172.9c-4.8,0-7.1,4.1-7.1,8.5c0,4.4,2.2,8.5,7.2,8.5c5,0,7.2-4.2,7.2-8.5
		c0-4.4-2.4-8.5-7.1-8.5C338.9,172.9,338.9,172.9,338.9,172.9C338.9,172.9,338.9,172.9,338.9,172.9"/>
	<path fill="#D0D0D0" d="M360.4,192.8c-4.8,0-8.1-3.8-8.1-8.4c0-4.9,3.3-8.4,8.1-8.4c1.2,0,2.7,0.3,3.6,0.6l-0.3,2.4
		c-1.1-0.5-2.3-0.7-3.2-0.7c-3.3,0-5.1,2.9-5.1,6c0,2.8,1.5,6,5.3,6c1,0,2.3-0.3,3.2-0.9l0.2,2.6
		C362.9,192.7,361.5,192.8,360.4,192.8"/>
	<path fill="#D0D0D0" d="M374.7,192.8c-5.7,0-8.3-3.4-8.3-8.6c0-4.7,3-8.1,7.5-8.1c5.3,0,7,3.9,7,9h-11.4c0,3.2,2.5,5.3,5.3,5.3
		c1.9,0,4.2-1,4.9-1.6v2.9C378.6,192.1,377.3,192.8,374.7,192.8 M373.9,178.4c-2.9,0-4.1,2.4-4.3,4.4h8.3
		C377.8,180.4,376.4,178.4,373.9,178.4"/>
	<path fill="#D0D0D0" d="M389.7,192.8c-3.4,0-5.9-1.5-5.9-5c0-4,4.4-5.3,7.4-5.3c1.2,0,2,0,3.1,0.1c0-2.8-1-4.2-3.9-4.2
		c-1.7,0-3.4,0.6-4.6,1.6l-0.2-2.5c1.5-0.9,3.2-1.5,5.3-1.5c4.6,0,6.4,2.3,6.4,6.6v6.6c0,1.8,0.1,2.7,0.1,3.1h-2.8v-2.1h-0.1
		C394,191.3,392.4,192.8,389.7,192.8 M392.5,184.7c-1.6,0-5.5,0.3-5.5,3.1c0,1.7,1.6,2.6,3,2.6c2.9,0,4.4-1.8,4.4-4.2v-1.4
		C393.8,184.8,393.1,184.7,392.5,184.7"/>
	<path fill="#D0D0D0" d="M416.4,192.4h-2.9v-8.3c0-3.7-0.8-5.5-3.4-5.7c-3.4,0-4.9,2.7-4.9,6.6v7.4h-2.9v-16h2.8v2.5h0.1
		c0.9-1.8,3-2.9,5.2-2.9c4.1,0,6,2.6,6,6.9V192.4"/>
	<path fill="#D0D0D0" d="M436.1,192.4h-5.8v-21.9h5.9c4.5,0,7.7,1.5,7.7,5.5c0,3-1.8,4.5-4.5,5.2v0.1c3,0.3,5.1,2.2,5.1,5.3
		C444.4,191.3,440.5,192.4,436.1,192.4 M433.4,182.4v7.4h2.3c2.8,0,5.4-0.6,5.4-3.5c0-3.4-3-3.9-5.7-3.9H433.4 M433.4,173.1v6.8h1.7
		c3,0,5.6-0.3,5.6-3.5c0-2.6-2.2-3.3-4-3.3H433.4"/>
	<path fill="#D0D0D0" d="M454.1,192.8c-3.4,0-5.9-1.5-5.9-5c0-4,4.4-5.3,7.4-5.3c1.2,0,2,0,3.1,0.1c0-2.8-1-4.2-3.9-4.2
		c-1.7,0-3.4,0.6-4.6,1.6l-0.2-2.5c1.5-0.9,3.2-1.5,5.3-1.5c4.6,0,6.4,2.3,6.4,6.6v6.6c0,1.8,0.1,2.7,0.1,3.1h-2.8v-2.1H459
		C458.3,191.3,456.8,192.8,454.1,192.8 M456.9,184.7c-1.6,0-5.5,0.3-5.5,3.1c0,1.7,1.6,2.6,3,2.6c2.9,0,4.4-1.8,4.4-4.2v-1.4
		C458.1,184.8,457.5,184.7,456.9,184.7"/>
	<path fill="#D0D0D0" d="M469.6,192.4h-2.9v-16h2.8v2.5h0.1c0.8-1.7,2.5-2.8,4.2-2.8c0.9,0,1.3,0.1,1.9,0.2v2.6
		c-0.5-0.2-1.1-0.3-1.6-0.3c-2.6,0-4.4,2.5-4.4,6.5V192.4"/>
	<path fill="#D0D0D0" d="M481.8,192.4h-2.9v-16h2.8v2.5h0.1c0.8-1.7,2.5-2.8,4.2-2.8c0.9,0,1.3,0.1,1.9,0.2v2.6
		c-0.5-0.2-1.1-0.3-1.6-0.3c-2.6,0-4.4,2.5-4.4,6.5V192.4"/>
	<path fill="#D0D0D0" d="M495.8,192.8c-3.4,0-5.9-1.5-5.9-5c0-4,4.4-5.3,7.4-5.3c1.2,0,2,0,3.1,0.1c0-2.8-1-4.2-3.9-4.2
		c-1.7,0-3.4,0.6-4.6,1.6l-0.2-2.5c1.5-0.9,3.2-1.5,5.3-1.5c4.6,0,6.4,2.3,6.4,6.6v6.6c0,1.8,0.1,2.7,0.1,3.1h-2.8v-2.1h-0.1
		C500.1,191.3,498.5,192.8,495.8,192.8 M498.7,184.7c-1.6,0-5.5,0.3-5.5,3.1c0,1.7,1.6,2.6,3,2.6c2.9,0,4.4-1.8,4.4-4.2v-1.4
		C499.9,184.8,499.3,184.7,498.7,184.7"/>
	<path fill="#D0D0D0" d="M531.3,192.4h-2.9v-9.5c0-2-0.5-4.4-2.8-4.4c-3,0-4.2,2.9-4.2,5.9v8h-2.9v-9.5c0-2-0.5-4.4-2.8-4.4
		c-3,0-4.2,2.9-4.2,5.9v8h-2.9v-16h2.8v2.3h0.1c1.1-1.8,2.7-2.7,5.1-2.7c1.8,0,3.7,0.9,4.5,3.1c1.1-2.3,3.5-3.1,4.9-3.1
		c4.1,0,5.5,2.6,5.5,6.1V192.4"/>
	<path fill="#D0D0D0" d="M542.3,192.8c-4.1,0-6-2.6-6-6.9v-9.5h2.9v8.3c0,3.7,0.8,5.5,3.4,5.7c3.3,0,4.9-2.7,4.9-6.6v-7.4h2.9v16
		h-2.8v-2.5h-0.1C546.6,191.7,544.5,192.8,542.3,192.8"/>
	<path fill="#D0D0D0" d="M569.5,192.4h-2.9v-8.3c0-3.7-0.8-5.5-3.4-5.7c-3.4,0-4.9,2.7-4.9,6.6v7.4h-2.9v-16h2.8v2.5h0.1
		c0.9-1.8,3-2.9,5.2-2.9c4.1,0,6,2.6,6,6.9V192.4"/>
	<path fill="#D0D0D0" d="M580.3,192.8c-4.8,0-6.9-4.3-6.9-8.6c0-4.3,2.3-8.1,6.9-8.1c2.8,0,4.4,1.1,5.3,2.6h0.1v-9.7h2.9v23.5h-2.8
		v-2.3h-0.1C585,191.3,583.2,192.8,580.3,192.8 M581,178.4c-3.2,0-4.4,3-4.4,5.9c-0.1,2.5,1.3,6,4.4,6c3.3,0,4.7-3.3,4.7-5.9
		C585.7,181.5,584.2,178.4,581,178.4"/>
	<path fill="#D0D0D0" d="M597,192.4h-2.9v-16h2.9V192.4 M597.2,172.9h-3.3v-3.3h3.3V172.9"/>
</g>
<g>
	<g>
		<defs>
			<rect id="SVGID_1_" x="0" y="0" width="496.8" height="150.5"/>
		</defs>
		<clipPath id="SVGID_2_">
			<use xlink:href="#SVGID_1_"  overflow="visible"/>
		</clipPath>
		<path clip-path="url(#SVGID_2_)" fill="#FFFFFF" d="M88,27.8l-2.3,2.7l-1.1,2.3l-2.1,1.5l-0.1,2.9l-1.5,2.1l-0.8,3.1h2.3l2.3-1.2
			l1.2-5.2l2.9-5.5v-2L88,27.8L88,27.8z M111.2,4.6l-0.3,0.7l-3.1,3.9l-3.7,2.5l-2.1,4.1c-1.3,0.5-2.1,0.3-2.8,0.7L97,17.9l-0.7,8.5
			c-1.1,2.3-1.7,4.5-2.7,6.9c-0.7,1.6-1.6,3.7-2.8,5.2l-4.4,5.1l-4.8,3.5c-1.5,0.9-2,2.8-3.6,3.6c-1.9,1.1-4.5,1.1-6.5,1.9h-3.3
			l-1.1-1.1c-0.1-0.1-0.4-0.5-0.7-1.2c0.1-0.5,0.4-1.1,0.9-1.6l0.9-1.5c0.3-1.2,0.7-2.3,1.1-3.1l2-2.7l2.3-2.5
			c0.9-0.9,1.5-1.9,1.9-2.9l3.3-4.4l3.6-4.7c1.1-1.3,2.1-2.3,3.1-2.9c1.3-1.1,2.1-2.3,2.4-3.5l0.5-0.3l0.4-0.4l0.1-1.1l0.1-1.2
			l0.5-1.1l0.3-0.9c0-0.7-0.3-1.3-0.8-1.9c-0.4-0.7-1.1-1.2-2-1.5l-2.4-0.8l-2-0.3c-0.7,0.1-1.7,0.4-2.9,1.1L75.1,15l-4.8,2.9
			l-3.2,2.3l-1.6,1.1l-1.7,0.8c-0.3,0.1-0.5,0.5-0.7,0.9l-0.7,0.8c-1.2,0.4-2.3,1.1-3.1,2l-2.3,2.8c-1.1,1.5-2.1,2.7-3.3,3.7
			l-3.9,3.5l-3.7,3.6c-2.5,2.5-3.5,5.1-5.1,6.7l-2.9,2.5c-2.3,1.7-2.1,3.6-3.7,5.7l-2.3,1.3l-1.6,1.7c-0.7,0.9-1.3,2.3-2.3,4.3
			L26,66l-1.7,2.3l-2,2.7l-1.6,2.8c-0.4,0.9-0.7,1.7-0.7,2.5l-2,1.9l-1.6,2.1c-1.1,1.5-1.2,1.7-1.9,3.5c-0.7,1.5-1.5,2.5-2.4,3.5
			l-0.4,1.3l-0.5,1.3l-1.5,1.2l-0.9,1.1c-0.9,2-0.5,4.5-2.5,6v2.4l-0.7,1.1l-0.8,1.1l-0.1,1.7l-0.3,5.9v2.3l0.3,1.1l0.4,0.9l0.1,0.7
			c0,0.7,0.3,1.2,0.8,1.6l2.1,1.2l2.8,1.1l1.2-0.3l1.5-0.1h2.3l0.5,0.5c0.1,0.1,0.3,0.3,0.7,0.4H21l0.7-0.4l1.5-0.4l1.5-0.5l0.9-0.1
			l6.8-2.7l2.9-1.1c3.2-0.7,5.3-2.5,6.9-2.5l2.9-0.8l2.3-1.1l2.3-1.5c1.2-0.9,1.3-0.8,1.9-0.9c0.8,0,1.6-0.1,2.3-0.5
			c2.5-1.2,2.8-3.1,5.5-3.6l3.5-2.4c0.4-0.4,1.1-0.7,1.9-0.7c0.9-0.3,1.7-0.7,2.1-1.1l4.4-1.5c1.2-0.4,2.4-1.3,3.5-2.8
			c0.5-0.8,1.2-1.2,2.1-1.3l2.8-1.1l2.1-1.5l2.1-1.2l3.1-1.7L90,86c0.9-0.9,1.9-1.5,2.5-1.5c0.8,0,1.3,0.1,1.6,0.5
			c0.4,1.1-0.3,2.4-2.3,3.9l-2,1.5l-2,1.7l-2.3,2.1c-0.9,0.7-1.7,1.2-2.7,1.6l-2.1,0.8l-1.6,0.9l-1.3,1.2l-1.6,1.6l-0.8,0.4
			l-0.7,0.4c-0.7,0.7-1.6,1.3-2.7,1.7l-2.7,1.7l-1.7,0.4l-1.6,0.9l-1.2,1.1l-1.1,1.1l-2.8,1.3l-1.3,0.4l-1.1,0.7l-2.7,1.6l-3.7,1.6
			l-3.5,2l-6.7,2.9l-2.3,0.9l-2.5,1.2l-2.4,1.1c-0.4,0.1-0.9,0.3-1.6,0.7l-4.9,1.7l-4.8,2l-5.1,0.8l-1.9-0.4
			c-0.3-0.1-0.8-0.1-1.7-0.1h-3.6l-1.6-0.7l-1.2-0.7l-4.9-2.4c-2.5-1.2-2.4-3.6-3.5-5.6v-14.5l0.7-0.8l0.4-0.5v-5.2l1.3-1.9
			c0.5-0.7,0.9-1.5,1.1-2.1c0.8-0.4,1.2-0.9,1.2-1.7l0.7-1.9l1.3-1.6L8,85.6c0.9-0.5,1.5-1.1,1.7-1.6l0.8-2l0.4-2.3l0.8-2.3l0.9-1.9
			l1.6-2.7l1.7-2.4l1.2-1.7l1.3-0.8c0.7-0.4,0.9-0.8,0.9-1.5c0.8-0.4,1.3-0.9,1.5-1.5l1.1-2.4L23,60l1.1-2l0.7-0.8l0.9-0.8l2.3-1.9
			c0.8-0.7,1.3-1.6,1.5-2.5l0.3-0.4l0.7-0.4l-0.1-0.4l0.3-0.5l0.8-2.1c0.3-0.7,0.7-1.3,1.2-1.9l2-1.7l2-2l0.8-0.9l0.8-1.1l0.5-1.2
			l0.7-1.3c0.7-1.2,1.3-2,2.1-2.4l2.7-2.1l0.3-0.9l0.3-1.1l3.1-2.8l3.6-2.8l2.9-3.1c0.9-1.2,1.5-2.5,1.6-4l4.9-2.9
			c1.7-1.2,2.9-2.5,3.7-4.3c0.3-0.5,0.7-0.8,1.2-0.8l1.5-0.4L70.7,8c1.2-0.9,2.4-1.3,3.7-1.5l3.3-0.9l2.8-1.2H83l1.3-0.3l1.6-0.4
			l2,0.1l1.2,0.5l1.3,0.8l2.3,0.9c0.9,0.3,4-0.1,6-0.9c2.3-0.9,4.9-4,6.5-4.5c4-1.3,6-0.5,5.9,0.4V4.6L111.2,4.6z"/>
	</g>
	<path fill="#FFFFFF" d="M112,86.4l-0.8-1.2l-0.5-1.2l-0.8,0.1l-0.4-0.7l-1.5,0.4l-0.5,0.3l-0.7,0.3c-0.1,0.1-0.4,0.5-0.8,0.7
		l-1.3,0.5l-1.5-0.3c-0.1,0.1-0.5,0.4-0.7,0.8l-0.7,1.3l-2.5,0.1l-0.9,0.3L98,88.7l-0.4,0.5l-0.3,0.7L97,90.3v0.8
		c-0.5,0.9-0.5,2.1-1.5,3.1l0.3,2l0.4,0.3l0.1,0.7l0.4,0.1l0.7,0.3l1.3,0.3l1.5-0.1l0.9-0.1l0.4-0.5h1.3l1.7-0.8l0.7-0.3l1.3-0.3
		l1.1-0.4c0.5-0.3,1.1-0.8,1.6-1.6l1.7-1.7c0.7-0.7,1.1-1.3,1.2-2.1L112,86.4L112,86.4z M120.9,80.8l-0.7,0.4l0.1,2.1l-0.3,0.8
		l-0.1,0.8l-0.1,0.4l0.1,0.4l-0.4,0.4l-0.3,0.7l-0.3,0.5l0.3,1.6l-1.5,2l-1.3,1.7l-0.5,0.3l-0.3,0.5l-0.5,0.5l-0.8,0.5l-0.8,0.5
		l-1.1,0.3l-0.9,1.1l-0.5,0.4l-0.3,0.4c-0.3,0-0.4,0.1-0.5,0.5l-0.7,0.4l-0.4,0.7l-0.7,0.3l-0.4,0.7l-0.8,0.4l-0.5,0.8
		c-0.1,0-0.4,0.1-0.7,0.5h-0.5l-0.3,0.4l-0.5,0.5c-0.1,0-0.4,0.1-0.8,0.5l-0.8-0.3l-1.3-0.3l-1.3,0.4l-0.9,0.5l-0.4,0.4l-0.9,0.3
		c-0.7,0.3-1.2,0.3-1.7,0.1l-1.2-0.5l-0.4-0.3h-0.8l-0.7-0.3h-0.5h-0.5l-0.4,0.1h-0.8l-1.1-0.1l-0.7-0.8c-0.3,0-0.5-0.1-0.9-0.5
		l-0.4-0.5l-0.9-0.8l-0.5-0.4l-0.7-0.8c-0.4-0.7-0.7-1.3-0.7-1.9c0.5-0.3,0.7-0.7,0.5-1.2v-0.9l-0.1-0.4l-0.3-0.7l0.3-0.4l0.4-0.7
		l0.3-1.1c0.1-0.4,0.5-0.7,0.9-0.7l-0.1-0.4l0.9-0.4l0.7-0.8c0.4,0,0.8-0.1,1.1-0.4l0.8-0.8l0.5-0.4H92l0.5-0.4l0.5-0.7l0.7-0.4
		l1.1-0.7l0.4-0.4l0.3-0.4l0.3-0.3l0.4-0.5l0.3-0.4l0.1-0.7l0.5-0.3c0.3-0.3,0.4-0.5,0.5-0.8h0.3c0.3-0.1,0.7-0.4,1.1-1.1l0.9-0.4
		l0.7-0.5l0.8-0.5c1.2-0.1,1.9-0.5,2.3-1.3l0.4-0.1l0.4-0.4l0.8-0.4c0.3,0,0.4-0.1,0.5-0.5c0.1,0,0.4-0.1,0.8-0.4
		c0.3-0.4,0.7-0.4,1.1-0.1v-0.5h0.8l0.4-0.3c0.1-0.1,0.5-0.4,0.9-0.8l0.7-0.1L111,74l2.8-0.3l0.3,0.3l0.5,0.3l0.8-0.3l0.3-0.4
		l0.5-0.1l1.3,1.3l1.3,0.9l0.9,1.1c0,0.9,0.3,1.5,0.8,1.6L120.9,80.8L120.9,80.8z"/>
	<path fill="#FFFFFF" d="M199.7,90.1c-0.3,0.7-0.7,1.1-1.3,1.2c-0.9,0.5-2.1,2.7-3.1,3.2l-1.6,0.9l-1.9,0.7l-1.3-0.3l-0.7,0.4
		l-0.4,0.8c-0.1,0.1-0.1,0.1-0.1,0.3c-0.3,0.3-0.5,0.4-0.8,0.5l-0.9,0.1l-1.1,0.3l-1.1,0.7l-1.1,0.9l-1.6,0.1
		c-0.1,0.1-0.3,0.4-0.4,0.8l-0.4,0.8c-0.1,0.4-0.7,0.7-1.5,0.9l-1.5,0.7c-0.4,0.4-0.9,0.7-1.6,0.8l-0.9,0.5l-2.7,0.4l-0.8,0.5
		l-2.5,1.3l-0.7,0.1l-0.5,0.4l-1.5,0.3l-1.7,0.5l-1.3,0.4l-1.3-0.4l-1.5-0.5l-1.3-0.7c-0.4-0.4-0.8-0.5-1.3-0.7l-0.4-0.8l-0.7-0.5
		l-0.3-0.5l-0.3-0.4l0.1-3.2c-0.1-1.2-0.4-1.9-0.9-2.3l0.3-1.5l1.1-3.1l1.5-2.5l1.5-1.9l-0.3-2.8c-0.4-0.4-0.5,0.3-1.7-0.7l-4.1,2.4
		l-0.8,0.3l-0.8,0.4h-3.6l-0.8,0.4l-0.8,0.4c-0.5,0.8-1.2,1.5-2,2l-0.8,0.5c-0.9,0.1-1.6,0.4-1.9,0.7l-1.3,1.2
		c-2.8,0.9-4.7,2.4-5.9,4.3c-0.3,0-0.5,0.1-0.9,0.5l-0.7,0.7l-1.3,0.8l-1.3,0.8h-2l-0.5-0.1l-0.4-0.7l-0.4-0.5v-1.5l0.3-1.6
		c0.4-0.4,0.8-1.1,0.9-1.9c1.2-0.9,1.9-2,2.1-3.2l0.4-0.7v-2.4l0.3-0.9l0.8-1.6l0.7-1.7l0.3-0.8l-1.1,0.5l-1.5,1.1l-1.5,1.1
		l-0.9,0.4l-2,0.5l-0.9,0.8c-0.4,0.4-0.8,0.7-1.5,0.8l-0.8,1.2c-0.1,0.3-0.4,0.5-0.7,0.5c-0.3,0-0.5,0-0.9-0.1l-0.7,0.3l-0.8,0.7
		l-1.2,0.3l-0.8-0.3l-0.5,0.3l-0.5-0.4V90l0.7-0.8l0.4-1.2l1.3-1.2l1.2-0.4l1.1-0.8l0.7-0.5l0.4-0.1l0.4-0.1l2.3-2.1l0.8-0.3
		l0.9-0.1l0.3-0.4l0.4-0.8l1.5-0.7l1.7-1.6l1.6-1.6c0.1-0.1,0.5-0.4,1.1-0.7h1.5l1.9,0.1c0.4,0.3,0.8,0.7,0.9,1.1l1.1,0.9l0.4,0.9
		l0.4,0.7l-0.5,1.3l-0.4,1.2c0,2.1,0.9,4.4,2.1,5.3h2.4c1.3-1.9,2.8-3.1,4.5-3.7l5.3-2.5l4.3-2l0.5-0.1l0.8-0.3l1.2,0.3l3.5-2.9
		l0.8-0.1l1.7-0.8l1.9-0.8l1.7-0.3l1.9,0.1c0.9,0.1,1.3,0.3,1.5,0.7c0,0.7-0.3,1.2-0.7,1.6l-0.5,1.1l0.1,0.9l-0.4,1.5l-0.3,1.3
		l0.1,0.9l-0.3,0.8l-0.8,1.1l-1.1,0.7l-0.7,0.4c-0.4,0.9-0.7,1.6-0.7,2.1l-0.1,0.7l-0.4,1.1l-0.4,0.9l0.3,0.3l-0.4-0.1l-0.7,1.2
		l-0.4,1.5c-1.2,0.9-2,2-2.3,3.2l-0.3,0.8v2.4l0.3,0.7l0.3,0.8l1.5,0.4l0.9,0.7h1.9c0.4-0.4,0.9-0.7,1.6-0.7l2.4-2.1L179,98l0.8-0.5
		l2.3-1.9l1.3-0.5l1.2-0.7l1.6-1.2l1.2-0.7l2.1-0.1l2.1-1.3l0.5-0.5l0.5-0.7l0.7-0.1l0.7-0.4l1.1-1.1l1.3-1.2
		c0.5-0.4,0.8-0.1,1.6-0.1h0.7c0.5-0.1,0.9,0.8,1.1,0.9c0.4,0.4,0.4,0.8,0.1,1.2L199.7,90.1L199.7,90.1z"/>
	<path fill="#FFFFFF" d="M215.3,80.1l-0.8-0.9l0.3-1.2h-0.8l-1.5,0.1l-1.1,0.3l-0.5,0.1l-2,1.1l-0.5,0.1c-0.1,0-0.4,0.1-0.7,0.4
		c-0.1,0.3,0,0.5,0.1,0.9l0.5,0.4l0.4,0.7l0.5,0.4l0.7,0.3l1.6,0.1l1.5-0.3l0.8-0.4l0.5-0.5l0.5-0.7l0.3-0.5L215.3,80.1L215.3,80.1z
		 M246.4,94.7l-2,0.5l-1.3,1.7l-1.6-0.3l-1.3,0.5c-0.8,0.4-1.2,0.9-1.2,1.6l-0.4,0.4l-0.3,0.3h-0.8l-0.5,0.3l-3.1,1.3
		c-1.2,0.9-2.1,1.5-3.1,1.7c-1.1,0-2,0.1-2.8,0.7c-0.4,0.4-0.8,0.5-1.5,0.5l-1.3-0.3l-3.3,2.4c-0.9,0.9-2.1,1.5-3.6,1.7l-3.5,0.4
		c-1.3,0.3-2.4,0.8-3.1,1.7l-3.1,0.4c-0.9,0.1-2,0.3-3.7,0.3c-3.1-0.4-4.8-0.8-5.9-2.8c-0.3-1.2-0.7-2.1-1.2-2.7l-0.8-1.1v-4.4
		l0.7-1.1c0.1-0.1,0.3-0.5,0.3-1.1c0-0.7,0.1-1.2,0.4-1.5l0.4-0.4c0.5-0.1,0.9,0,1.1,0.1l0.9,0.7c0.3,0.1,0.7,0.4,1.1,0.8l0.8,1.5
		c2.5,1.7,4.3,2,7.3,2l0.7-0.4l0.7-0.4h1.5l1.5-0.1l1.6-0.8l2.1,0.7l1.3-0.4l1.5-0.5h2.8c0.9,0.1,1.7-0.1,2.4-0.9l1.5-0.3l1.3-0.8
		l1.7-0.3l2-0.3l1.9-0.7c0.5-0.4,0.9-0.4,1.2-1.1l0.4-0.1l0.4-0.3c0.5,0.1,0.9,0.4,1.2,0.1l1.2-0.9l0.8,0.1l0.4-0.3
		c0.4-0.4,0.1,0,1.6-1.5l1.2-0.4l1.3-1.1c0.3-0.3,0.5-0.5,0.9-0.7c0.7-0.1,0.9-0.4,1.1-0.8c2.7,0,4.7,0.5,4.7,1.6
		c0.1,0.4-0.1,1.1-0.8,1.9L246.4,94.7L246.4,94.7z M224.3,77.2l-0.1,1.1l-0.5,0.3l-0.4,0.5c-0.1,0.1-0.3,0.5-0.3,1.1l-0.3,1.3
		l-0.4,0.5l-0.4,1.1l-0.7,1.2l-0.7,0.7l-0.8,0.5l-0.7,0.3l-0.5,0.5l-0.5,0.1l-0.5,0.1l-0.5,0.1l-0.7,0.3l-1.9,0.3l-1.7,0.3l-2.3-0.5
		l-0.5,0.4l-0.5,0.1c-1.5-0.1-2.4-0.3-2.8-0.3c-2,0-3.2,0.1-5.3,3.7l-0.5,0.7l-0.3,1.2l-0.4,1.2l-0.3,0.4c-0.8,0.1-1.5,0.3-1.9,0.4
		l-0.7-0.8l-0.5-0.9c-0.4-0.9-0.5-2-0.5-2.9l0.9-3.5l0.3-0.8l0.4-0.5l0.8-0.9l0.4-0.3l0.3-0.5l0.4-1.7l-0.1-0.7v-0.9l0.3-0.4
		c0.4-0.3,0.7-0.7,0.8-1.3c1.2-0.9,2-1.9,2.4-2.7c0.8-1.1,1.6-1.9,2.5-2.5l3.1-0.8l2.9-1.2l1.7-0.1c0.7-0.1,1.2-0.3,1.6-0.7h1.1
		l0.9-0.4l3.2,0.9l0.5,0.3c0,0.1,0.1,0.4,0.5,0.8l0.9,0.3l0.5,0.9l0.4,0.9c0.1,0.1,0.3,0.4,0.7,0.9l0.7,1.2l-0.1,0.4L224.3,77.2
		L224.3,77.2z"/>
	<path fill="#FFFFFF" d="M328.3,107.3l-1.1-0.3l-0.5-0.1l-1.5-0.1l-2-0.1l-0.1,0.8l-3.6,0.3l-3.1,0.7l-0.4,0.3l-1.3,1.1
		c-0.4,0.4-0.9,0.7-1.6,0.7l-0.8,1.1l-0.1,0.9c-0.1,1.7,1.2,2.7,2.7,2.7c1.2-0.1,2.3-0.3,3.1-0.7l3.3-1.7l2.9-2l2-2l1.1-0.7
		L328.3,107.3L328.3,107.3z M374.6,88.4c1.7,0,2.7,0.4,2.5,1.3c-0.4,0.7-2.4,2.5-7.6,4.7l-1.3,0.8l-1.6,0.8l-1.7,0.5l-3.9,1.1
		l-3.9,1.3l-2.1,0.8l-1.5,0.4l-1.3,0.5c-2,1.1-4.4,0.1-9.1,2.7c-1.1,0.1-2,0.4-2.9,1.1c-0.9-0.1-1.6,0.1-2.1,0.8l-1.6,1.9
		c-0.7,0.4-1.3,0.7-2,0.7c-0.5,0-1.1,0.3-1.6,0.9l-0.5,0.4l-0.4,0.4l-0.8,0.3c-0.7,1.2-1.1,2-1.5,2.4l-1.7,2.4l-1.5,1.2
		c-0.5,0.4-0.9,0.8-1.1,1.5l-2,0.9l-2,1.1l-2.8,0.4c-0.9,0.3-1.6,0.7-2.3,1.1l-0.3-0.3l-0.3,0.3h-4.9c0-0.1-0.3-0.4-0.7-0.8
		l-1.1-0.1c-0.5-0.4-0.5-1.1-1.6-1.7l-0.3-1.1l-0.4-0.9c0.1-0.5,0.3-1.1,0.3-1.5c0-0.1-0.1-0.5-0.4-0.9l0.4-0.3l0.8-3.1l-0.3-0.5
		l0.4-1.1l1.2-1.6l0.9-1.2l0.4-0.5l0.5-0.5c4.1-3.2,7.1-3.6,8.8-4l4.7-0.9l4.9-1.2l3.1-0.9l3.2-0.8c0.1-0.4,0.5-0.9,1.3-1.6
		c1.1-0.8,1.6-1.5,1.6-1.9h0.7l0.4-1.2l0.5-1.5c0.7-0.7,0.9-1.2,1.1-1.7c0.4-0.5,0.5-1.1,0.7-1.6l0.5-1.6l1.2-2l1.6-3.7l0.8-4.4
		l0.4-1.3l0.5-1.5v-4.1l-0.3-5.9l-0.1-3.3v-3.3l-1.5-3.2l-1.7-3.1c0.1-0.7,0-1.1-0.4-1.2c-0.4-0.3-0.7-0.7-0.8-1.2
		c-2.7,0-3.2-0.5-3.6-1.6l-0.4-1.6l-0.1-1.6l0.5-0.9l1.3-0.9l1.1-0.8c0.1-0.1,0.3-0.4,0.3-0.5l0.8-0.4l2.1-1.2l1.1-0.4l1.2-0.4
		l2-1.3l1.1-0.8l1.3-1.2l0.7-0.7l0.5-0.8l0.3-2l-0.4-0.4l-0.5-1.2v-0.5l0.1-0.5l-0.5-0.5l-0.5-0.5l-0.7-0.4l-0.5-0.4
		c-0.5-0.7-0.7-1.1-0.8-1.6l-0.3-0.8v-1.3l-0.4,0.1l-0.3-0.4c-0.4-0.1-0.7-0.3-0.8-0.1h-0.7l-0.4-0.5l-0.3-0.5h-0.8l-1.2,1.2
		l-0.7,0.9l-0.5,0.9l-0.9,1.2l-3.6,4.3c-1.2,1.7-2.1,3.5-2.8,4.9l-1.1,1.5l-0.7,1.7l-2,2.4l-1.9,2.4c-1.7,2.8-4.7,3.9-6.1,6.4
		c-0.7,0.3-0.9,0.7-1.1,1.2l-0.5,1.5l-1.5,1.9l-1.5,1.9l-2.1,2.8c-0.7,0.9-1.3,1.9-1.9,3.1c-1.1,1.1-1.7,2.1-2,3.3
		c-0.5,1.5-1.3,2.5-2.3,3.2l-0.1,0.5l-0.3,0.5c-0.3,0-0.5,0-0.7,0.1l-0.5,0.7l-2,1.9c-0.7,0.7-1.2,1.5-1.5,2.3h-0.7l-1.1,1.5
		c-0.5,0.5-1.1,0.8-1.6,0.8l-1.5,1.9l-1.3,1.9l-1.5,0.8l-1.6,0.8c0.1,0.4,0,0.5-0.4,0.7l-0.4,0.8h-0.7c-0.1,0.5-0.5,1.2-1.2,1.9
		l-1.5,1.9h-0.5l-0.5,0.9l-0.5,0.8l-0.5,0.1l-0.5,0.8l-2.4,1.9c-0.7,0.8-1.6,1.5-2.5,1.9l-0.9,1.1l-1.3,1.5l-1.7,1.2l-1.6,0.4
		c-0.9-0.1-1.3-0.4-1.5-0.7l-1.1-1.5l1.1-3.7l0.8-1.1l1.1-1.2l1.5-1.5l1.5-1.5l0.9-0.5c0-0.7,0.5-0.8,0.9-1.5l0.9-0.9l0.7-1.2
		c1.6-0.9,2.4-2,3.3-3.7h0.5l0.4-0.8l0.5-0.9h0.7l0.7-1.2l1.2-0.9l0.3-1.1l0.8-0.7l0.9-0.7l0.4-1.1h0.5c0-0.3,0-0.5,0.1-0.8l0.8-0.9
		l3.2-3.1c0.8-0.9,1.9-1.9,3.2-2.9c0-1.1-0.4-1.1-0.4-2l0.9-1.2l0.8-1.2h0.7c1.2-1.6,2.7-2.5,4.5-2.9l0.1-0.5l1.6-1.1
		c0.7-0.7,1.2-0.9,1.7-0.9l2-2.9l2.3-2.8h0.7l0.7-0.9l0.8-1.1c1.1-1.9,2.4-3.6,4-5.2c1.9-1.6,3.2-3.3,4-5.2h0.7l3.5-5.6
		c1.3-2,2.4-3.9,3.3-5.9h0.5c0.5-1.5,1.3-2.7,2.3-3.3c1.1-1.1,1.9-2.3,2.4-3.7h0.5l2.8-4c1.5-1.5,2.5-2.9,3.2-4.1h0.7l0.1-0.8
		l0.9-0.4l0.1-0.5l0.7-0.3h2.3l0.5,0.1l0.7,0.1l-0.1,0.5c0.7,0.1,1.1,0.5,1.1,1.2c0.1,0.8,0.4,1.3,0.8,1.7l-0.3,1.2l0.4,0.8
		l-0.7,2.9v1.6v1.7l-0.3,0.8l0.3,0.5l0.7,0.3c0.4,0.4,0.7,0.7,0.5,1.1l0.1,1.3c0,0.4,0,0.7-0.1,0.9l0.7,0.4c0.7,0.3,1.2,0.7,1.3,1.1
		v0.8l0.1,0.8l0.7,0.9c0.3,0.3,0.5,0.5,0.7,0.8v2v0.8l-0.4,0.4l0.3,0.3l-0.4,1.1c-0.3,0.7-0.7,1.2-1.1,1.3c-0.5,0.3-0.9,0.7-1.2,1.3
		l-0.4,0.9v0.7c-0.1,0.4-0.7,0.8-1.6,1.3c-0.1,0.1-0.5,0.3-1.2,0.3l-1.2,0.3l-0.4,0.4l-0.3,0.4l-0.9,0.4l-0.9,0.3
		c-0.4,0.1-0.8,0.5-1.2,1.2l-0.1,0.8c0.7,1.1,1.2,1.9,1.7,2.3c1.2,0.7,2,1.3,2.5,1.9l0.1,1.1l0.5,1.1l-0.1,1.2l0.5,1.3l0.4,2.4
		l0.8,2.3l0.1,0.8l0.4,0.9l-0.3,0.7l0.3,0.5l-1.2,5.1l0.7,2.7c0.1,0.1,0.1,0.4,0.1,0.8v0.8l-0.3,1.2l0.8-0.9l-0.4,0.9l-0.5,0.8
		l-0.8,5.5l-0.4,0.3l-0.1,0.8c-0.1,0.5-0.3,1.1-0.3,1.5l-0.4,1.3l-0.1,0.8l-0.1,0.8l-0.1,0.7l-1.2,3.5l-0.9,1.2l-0.3,1.1l-0.1,1.2
		l-0.7,1.2l-3.3,6.5h2l1.6-0.1h1.5l2.4-0.4l1.5-0.4l2-0.4l1.6-0.3l0.9,0.1l0.8-0.3l1.9-0.5l1.7-0.5l0.4-0.1l0.5-0.3l1.6-0.7l2-0.8
		l1.7-0.5l1.2-0.4l1.6-0.8l1.6-0.7L374.6,88.4L374.6,88.4z"/>
	<g>
		<defs>
			<rect id="SVGID_3_" x="0" y="0" width="496.8" height="150.5"/>
		</defs>
		<clipPath id="SVGID_4_">
			<use xlink:href="#SVGID_3_"  overflow="visible"/>
		</clipPath>
		<path clip-path="url(#SVGID_4_)" fill="#FFFFFF" d="M394.4,78.8c0-0.3-0.1-0.7-0.4-1.1l-0.9-1.1h-2.9l-1.1,0.5l-1.3,1.5
			c-0.4,0.5-0.8,0.8-1.3,0.9c-1.7,2.5-3.9,4-6.1,4.7l-1.3,1.1c-0.7,0.7-1.1,1.3-1.1,2c0,0.3,0.1,0.5,0.5,0.9l1.1,0.9h3.6l0.4-0.3
			l0.4-0.3l1.2-0.1l2.4-1.5l2.5-1.6l0.4-0.8l0.7-0.8c0.7-0.1,1.2-0.5,1.7-1.1l1.1-1.9l0.4-0.9L394.4,78.8L394.4,78.8z M430.8,87.7
			c-0.1,1.1-0.3,1.3-0.7,2l-0.8,1.1c-0.7,0.7-1.5,1.3-2.4,1.7c-0.7,0.7-1.7,1.1-3.2,1.3l-1.7,0.5c-0.7,0.4-1.2,0.7-1.9,0.7l-0.8,0.8
			l-1.1,1.2l-3.2,1.3l-1.2,0.3l-0.4,0.3l-0.5,0.3h-1.3l-0.5,0.3l-0.7,0.1l-1.2,0.1l-0.9,0.3l-1.1,0.1l-1.2,0.4l-1.2,0.7l-1.5,0.3
			c-0.7,0.1-1.1,0.5-2.1,0.5l-2.1-0.3l-1.1-0.3l-0.5,0.4l-0.5-0.9c-2,0.1-2.8-1.5-3.7-4.3l-1.2-3.6c-0.5-1.1-1.3-1.6-2.4-1.6
			l-0.4,0.4h-1.3c-0.1,0.1-0.7,0.3-1.1,0.8l-1.2,1.3l-2.9,1.6l-2.8,1.3l-2.3,0.4c-0.8,0.1-1.5,0.4-2,0.8l-2,0.5l-1.9,0.9h-2.1
			l-2-0.9c-0.7-0.7-1.1-1.3-1.1-1.9l0.1-0.4l0.3-0.5V94l0.4-0.8c0.4-0.4,0.5-0.8,0.5-1.5l0.8-0.9l0.9-1.1l1.6-0.9
			c0.5-0.7,0.8-1.2,0.8-1.9c0.8-0.5,1.5-1.3,2-2.4l0.8-0.5l0.7-0.8l0.4-1.2l0.7-1.2l0.7-0.5l0.8-0.7l2-1.1l1.7-1.3
			c1.6,0.1,2.1-1.3,3.3-0.9l1.9-1.7c0.8-0.8,1.5-1.3,1.9-1.5c0.7-0.9,1.5-1.6,2.4-1.9c0.8-0.4,1.9-0.8,3.1-0.9l0.9-0.7l1.7-0.9
			l1.7-0.7l1.1-0.4c0.7,0.1,1.3,0.4,2,1.1l1.3,1.2l0.5,1.7v2.7l-0.1,0.5l-0.5,1.1l-0.4,1.1l-0.9,0.8l-0.8,0.8l-0.8,0.8l-0.4,1.1
			l0.1,1.1l0.3,1.1l-0.1,0.5l-0.1,1.1l-0.1,1.7l0.1,1.6l0.1,0.9l-0.3,0.5l-0.3,0.3l-0.3,0.7l-0.3,1.2l0.3,1.6l0.3,0.8l1.2,0.9
			l1.2,0.7l0.7,0.3l0.9,0.5l2-0.3l1.1-0.3l0.5-0.1l0.4-0.4l2.3-0.7l0.8-0.5h2.5l2-0.4l2.3-1.6l2-0.1c0.1-0.4,0.4-0.7,0.9-1.1
			l1.2-1.2l3.5-0.8c0.1-0.1,0.5-0.4,1.2-0.8l1.5-0.5l1.1-0.7c0.1-0.1,0.4-0.3,0.8-0.4C430.7,86.7,430.9,86.8,430.8,87.7L430.8,87.7z
			"/>
		<path clip-path="url(#SVGID_4_)" fill="#FFFFFF" d="M449,121c-0.4-0.1-0.8-0.3-1.3-0.3l-1.3,0.1c-1.3,0.1-2.4,0.4-3.2,0.9
			c-0.8,0.7-1.5,1.6-2.1,2.7l-1.6,3.1l-1.6,2v2.4c0.1,0.1,0.3,0.4,0.7,0.9c0,0.1,0.1,0.4,1.2,0.4c0.4,0,0.7-0.1,1.1-0.5l0.9-1.3
			l0.7-0.9l0.8-0.8l0.9-1.2c0.4-0.4,0.8-0.9,0.9-1.5l0.8-0.7l1.2-0.9l1.5-0.9l0.3-0.8v-0.5l0.1-0.4v-0.8L449,121L449,121z
			 M482.1,102.3c-0.1,0.1-0.5,0.3-1.2,0.3c-0.5,0-1.1,0.1-1.6,0.5l-1.1,0.5l-1.2,0.9c-0.4,0.4-1.1,0.7-1.7,0.7l-1.9,0.7l-2.3,1.3
			l-0.8,0.7l-0.8,0.1l-0.9,0.4c-3.2,3.3-7.2,5.7-9.5,9.5l-0.4,0.5l-0.4,0.7l-0.9,1.1l-0.9,0.9c-1.2,0.4-2,1.2-2.4,2.5l-0.3,0.8
			l-2,1.9l-1.7,2l-0.7,1.5l-0.8,1.1l-0.1,1.1l-2.4,3.9c-0.9,2-1.3,2.9-1.7,4.5l-1.9,2.3l-1.9,2.7l-1.2,0.5l-0.8,1.1
			c-2,0.9-2.7,2.7-4.1,3.2l-0.5,0.4h-0.7l-0.5-0.1L432,150l-0.3-0.8l-0.3-1.5l0.1-2l0.4-0.9c-0.3-0.3-0.4-0.7-0.4-1.1v-0.5l0.4-0.5
			l-0.4-0.8c-0.4-0.5-0.5-1.1-0.7-1.6c0-0.4,0.1-0.9,0.3-1.5c0.4-0.4,0.7-0.9,0.7-1.5l0.1-2.3V134l1.2-1.3l0.9-1.3
			c0.5-0.3,0.8-0.7,0.8-1.1l0.1-0.8v-4c0.1-0.1,0.3-0.4,0.7-0.9l0.5-0.9c0.4-0.7,0.7-1.3,0.7-1.9l0.8-1.7l3.1-3.5
			c1.2-1.3,2.4-2.3,3.9-2.9l2-1.2l3.5-1.3c1.6-0.5,2.9-1.5,3.9-2.7c0.9-0.1,1.3-0.4,1.5-0.7l1.6-0.8l1.1-0.3l0.9-0.3l2.7-2.1l1.5-2
			l2-1.9l1.7-2c0.7-0.7,0.9-1.5,1.1-2.4l0.8-1.3l0.4-1.2c-0.4-0.9-1.2-1.3-2.4-1.9h-2.3l-1.6,0.8l-1.9,1.1l-2.5,3.2
			c-0.7,0.4-3.3,0.5-3.5,0.9l-2,2.3l-2.3,0.5l-2-0.3c-0.1,0-0.4,0.1-0.8,0.5l-1.2,0.4l-0.9,0.1l-1.5-0.4l-1.3-0.9l-0.3-1.3l-1.3-2.1
			l2-6.3l-1.5-1.1l-0.7-0.1l-0.5-0.3h-2c-0.7,0.9-1.5,1.3-2.5,1.3c-1.2,0.1-2.1,0.3-2.9,0.7l-0.9,0.3l-2,1.1
			c-0.1,0.1-0.5,0.3-1.2,0.3l-1.1,0.1l-1.3,0.9l-0.5,0.5l-0.5,0.4h-0.5l-1.2-0.1l-1.2-0.3h-0.7l-0.7-0.1c-0.7-0.3-0.8-0.8-0.3-1.6
			l0.5-0.9l1.1-1.1l1.3-0.9l1.7-1.1l1.5-0.3l2.5-0.9l0.7-0.7l0.8-0.7l4-2c0.7-0.4,1.5-0.5,2.3-0.5c0.9,0,1.6,0.1,1.7,0.3l0.5-0.3
			l0.7-0.3l0.5-0.1l0.5-0.5c0.5,0,0.9-0.1,1.2-0.5l1.2-1.2h0.9l0.7-0.4h3.5c0.7,0.1,1.2,0.4,1.6,1.1l1.1,1.5c0,1.9-2.7,8.4-1.1,9.6
			l3.1,0.8l3.1-0.9l0.5-1.2l3.5-0.7l4.7-3.5c0.1,0,0.4-0.1,0.7-0.5c1.1-0.1,1.9-0.4,2.4-0.8l2-1.9l2.7-1.6l2.4-1.7h2.7l0.5-0.1
			c2.7,0.7,3.6,2.4,3.7,2.8v3.1c-0.7,0.7-1.2,1.5-1.5,2.3l-1.2,2.1l-1.1,1.1l-2.1,2.3l-2.1,2.5l-1.3,1.9l-0.9,2.4l0.3,0.5l1.3-0.3
			l1.7-0.7l1.6-0.7l2.8-1.6l1.5-0.8l1.5-0.5c0.1,0,0.4-0.1,0.7-0.1l4-2.5l2,0.1l1.3-1.6l2.4-1.2c1.6-0.4,2.8-1.6,3.2-0.9
			c0.1,0.9,0.3,1.5,0.1,1.9l-1.3,1.7l-0.8,0.9c-1.1,0.1-1.7,0.9-2.1,1.1l-2.1,1.3l-2.1,1.1l-4.3,2.5c-0.3,0.1-0.4,0.3-0.5,0.4
			L482.1,102.3L482.1,102.3z"/>
	</g>
</g>
</svg>
